<svg id="html5" xmlns="http://www.w3.org/2000/svg" viewBox="0 0 21 24">
   <g fill-rule="nonzero" fill="none">
      <path fill="#FFF" d="M3.4759 4.0276h14.0138v15.9448H3.4759z"></path>
      <path d="M.0185.793l1.5546 19.8882a.7356.7356 0 00.511.6438l8.1804 2.5936c.1447.0458.3.0458.4446 0l8.1803-2.5936a.7356.7356 0 00.5111-.6438L20.9551.7929C20.9885.3654 20.6506 0 20.2217 0H.752C.3231 0-.0148.3654.0185.793zm16.95 6.1706H6.8368l.3057 2.8196h9.6055l-.6284 8.0382-5.6329 1.7859-5.6328-1.7859-.3283-4.1995h2.9566v2.06l3.0835.8275 3.0652-.8276.2378-3.2829H4.4301l-.6267-8.0172h13.3668l-.2018 2.5819z" fill="#FC490B"></path>
   </g>
</svg>
