<svg id="js" xmlns="http://www.w3.org/2000/svg" viewBox="0 0 24 24">
   <g fill-rule="nonzero" fill="none">
      <path fill="#F7DF1E" d="M0 0h24v24H0z"></path>
      <path d="M16.1219 18.7501c.4834.7893 1.1124 1.3695 2.2248 1.3695.9344 0 1.5314-.467 1.5314-1.1124 0-.7733-.6133-1.0472-1.642-1.4971l-.5637-.242c-1.6274-.6932-2.7086-1.5618-2.7086-3.398 0-1.6914 1.2888-2.979 3.3029-2.979 1.4339 0 2.4647.499 3.2076 1.8057l-1.7562 1.1276c-.3867-.6934-.8038-.9665-1.4514-.9665-.6606 0-1.0793.419-1.0793.9665 0 .6766.419.9505 1.3867 1.3695l.5638.2415c1.9162.8217 2.9981 1.6595 2.9981 3.5429 0 2.0305-1.595 3.1428-3.7371 3.1428-2.0945 0-3.4477-.998-4.1098-2.3062L16.122 18.75zm-7.9669.1954c.3543.6286.6766 1.16 1.4515 1.16.741 0 1.2084-.2899 1.2084-1.4171v-7.6686H13.07v7.699c0 2.3353-1.3691 3.3982-3.3676 3.3982-1.8057 0-2.8515-.9345-3.3833-2.06l1.8358-1.1115z" fill="#000"></path>
   </g>
</svg>
