<svg id="Calque_1" data-name="Calque 1" xmlns="http://www.w3.org/2000/svg" viewBox="0 0 529.7 458.74"><title>logo cesar 2</title><polygon points="320.96 216.55 355.42 156.87 299.31 59.68 264.85 0 230.39 59.67 166.87 169.7 132.43 229.38 166.87 289.05 201.33 229.38 264.85 119.36 320.96 216.55"/><polygon points="264.85 458.74 299.3 399.07 230.4 399.07 264.85 458.74"/><polygon points="362.86 169.75 328.4 229.43 362.83 289.05 397.27 229.38 362.86 169.75"/><polygon points="159.44 156.82 103.35 59.67 215.53 59.67 249.99 0 0 0 124.99 216.5 159.44 156.82"/><polygon points="279.48 0 313.94 59.68 426.35 59.68 362.83 169.7 328.37 229.38 264.85 339.39 201.33 229.38 166.87 169.7 132.42 229.37 132.43 229.38 166.87 289.05 230.4 399.07 264.85 458.74 299.3 399.07 362.83 289.05 397.27 229.38 529.7 0 279.48 0"/></svg>