<svg fill="white" id="Calque_1" data-name="Calque 1" xmlns="http://www.w3.org/2000/svg" viewBox="0 0 498.26 431.54"><title>logo cesar 1</title><polygon points="245.97 120.04 176.67 0 127.32 28.49 180.17 120.04 245.97 120.04"/><polygon points="278.88 177.03 213.07 177.03 282.68 297.58 332.03 269.08 278.88 177.03"/><polygon points="417.3 140.27 384.39 197.25 351.5 140.26 303.44 57.03 270.54 0.04 336.32 0.04 369.24 57.03 384.38 83.28 417.3 140.27"/><polygon points="286.64 57.03 220.93 57.03 188.03 0.04 253.75 0.04 286.64 57.03"/><polygon points="369.24 57.03 303.44 57.03 270.54 0.04 336.32 0.04 369.24 57.03"/><polygon points="498.25 0.04 458.58 68.74 425.69 125.73 417.3 140.27 384.39 197.25 376 211.79 343.13 268.7 310.24 211.72 343.1 154.8 351.5 140.26 384.38 83.28 392.79 68.74 399.55 57.03 386.02 57.03 353.12 0.04 498.25 0.04"/><polygon points="304.46 221.72 249.13 317.56 98.7 57.02 209.38 57.02 176.48 0.04 0 0.04 249.13 431.54 337.37 278.7 304.46 221.72"/><polygon points="376 211.79 343.13 268.7 310.24 211.72 220.93 57.03 188.03 0.04 253.75 0.04 286.64 57.03 343.1 154.8 376 211.79"/><polygon points="458.58 68.74 425.69 125.73 392.79 68.74 399.55 57.03 386.02 57.03 353.12 0.04 418.92 0.04 458.58 68.74"/></svg>
