<svg id="msoffice" xmlns="http://www.w3.org/2000/svg" viewBox="0 0 18 24">
   <g fill="none" fill-rule="evenodd">
      <path d="M9.9038.75l1.7212 3.9375V18.375L9.93 23.25l6.4088-1.8263A2.295 2.295 0 0018 19.2225V4.7775a2.2912 2.2912 0 00-1.665-2.205L9.9037.75z" fill="#D83B01" fill-rule="nonzero"></path>
      <path d="M1.7775 18.2288l1.875-1.0126A1.635 1.635 0 004.5 15.78V8.4113a1.6387 1.6387 0 011.0762-1.5376l6.0488-2.1862V3.0263A2.37 2.37 0 009.9038.75 2.3175 2.3175 0 009.255.66a2.4037 2.4037 0 00-1.1775.3112L1.155 4.92A2.2875 2.2875 0 000 6.9075v10.26a1.2038 1.2038 0 001.7775 1.0613zM11.625 18.375H4.4737a1.2075 1.2075 0 00-.5962 2.25l4.26 2.415a2.325 2.325 0 001.1513.3038A2.25 2.25 0 009.93 23.25 2.3325 2.3325 0 0011.625 21v-2.625z" fill="#A4070A" fill-rule="nonzero"></path>
      <path d="M-3 0h24v24H-3z"></path>
   </g>
</svg>
