<svg id="php" xmlns="http://www.w3.org/2000/svg" viewBox="0 0 25 24">
   <g fill-rule="nonzero" fill="none">
      <path d="M24 12c0 .7259-.0646 1.4366-.188 2.1267C22.8082 19.7397 17.9015 24 12 24c-4.4464 0-8.328-2.4181-10.4008-6.0113a11.9065 11.9065 0 01-1.176-2.8197C.147 14.1595 0 13.0966 0 12 0 5.3726 5.3726 0 12 0c5.47 0 10.0849 3.6598 11.5303 8.6645A12.0108 12.0108 0 0124 12z" fill="#8F9ED1"></path>
      <g fill="#F2F2F2">
         <path d="M6.1019 8.355H1.6824L.4232 15.169c.2723.9977.67 1.9435 1.176 2.8197h.41l.4878-2.639h2.4284c2.9569 0 3.7518-2.6546 3.9424-3.9585.191-1.3034-.7626-3.0362-2.766-3.0362zm.6411 3.256c-.1082.7392-.6544 2.2443-2.3304 2.2443H2.7732l.7328-3.9658h1.6687c1.6266 0 1.6766.9825 1.5683 1.7216zM23.5303 8.6645c-.3757-.194-.8234-.3096-1.3406-.3096h-4.4194l-1.7804 9.6339h2.107l.4879-2.639h2.4284c1.3151 0 2.2026-.5251 2.7986-1.223A12.0644 12.0644 0 0024 12c0-1.1574-.164-2.2766-.4697-3.3355zm-.6995 2.9466c-.1082.7391-.6543 2.2442-2.331 2.2442H18.861l.7328-3.9658h1.6687c1.6267 0 1.6766.9825 1.5683 1.7216zM14.4955 8.3868h-2.5592l.4804-2.5992h-2.0984L8.5378 15.421h2.0984l1.024-5.54h1.341c.8902 0 1.4943.1908 1.3671 1.0175-.1272.8266-.8584 4.483-.8584 4.483H15.64s.8266-4.0697.9538-5.2143c.1272-1.1446-.922-1.7805-2.0984-1.7805z"></path>
      </g>
   </g>
</svg>
