<svg id="react" xmlns="http://www.w3.org/2000/svg" viewBox="0 0 25 25">
   <g fill-rule="nonzero" fill="none">
      <path d="M24 12c0 3.9536-1.9122 7.4606-4.8617 9.647a11.9493 11.9493 0 01-4.1854 1.9866A11.9994 11.9994 0 0112 24a12.0039 12.0039 0 01-2.9535-.3664 11.9417 11.9417 0 01-4.1853-1.9871C1.9117 19.4601 0 15.9532 0 12 0 5.3726 5.3726 0 12 0s12 5.3726 12 12z" fill="#5ADAFD"></path>
      <g transform="translate(.3281 3.1406)" fill="#F2F2F2">
         <path d="M18.8224 15.6161a14.9606 14.9606 0 00-.2228-1.1642 18.528 18.528 0 00-.2831-1.0668c-.2821-.9492-.6539-1.9356-1.1045-2.9329-.1974-.4359-.41-.8738-.6367-1.3112a28.4883 28.4883 0 00-.6324-1.155 27.897 27.897 0 00-.6842-1.125 26.9134 26.9134 0 00-.817-1.2063c-.6377-.889-1.3062-1.7045-1.9876-2.4236a17.6955 17.6955 0 00-.7822-.7778 14.5854 14.5854 0 00-.8973-.7758C8.8208.1263 7.0718-.3395 5.8487.3663c-1.223.7063-1.6942 2.4539-1.3278 4.922.0558.3776.1308.7665.2234 1.1642.0803.3493.1748.7054.2826 1.0668.2821.9492.6538 1.9362 1.105 2.9329.1969.436.4094.8733.6362 1.3107.1998.386.411.7714.6323 1.1554.2214.384.4497.7592.6843 1.125.2654.4154.5382.818.817 1.2069.6377.889 1.3062 1.704 1.9876 2.423.259.2738.5206.5338.7826.7783.2983.2791.598.5377.8968.7753.7186.5706 1.4092.9943 2.0562 1.2662a11.949 11.949 0 004.1853-1.9867c.1723-.7943.1787-1.7676.0122-2.8902zm-1.1 2.712c-.1426.6162-.4047 1.0384-.7793 1.2544-.3742.2165-.8709.2322-1.4758.048-.6554-.2003-1.4204-.6382-2.2129-1.2676a13.8929 13.8929 0 01-.8003-.6892 16.899 16.899 0 01-.7827-.7773c-.4457-.4716-.8865-.988-1.3166-1.5418a24.829 24.829 0 01-.8454-1.1574 27.2534 27.2534 0 01-1.154-1.8304 27.1883 27.1883 0 01-1.008-1.9146 24.3684 24.3684 0 01-.5794-1.3107c-.265-.6494-.4917-1.2896-.6773-1.9112a16.6816 16.6816 0 01-.2812-1.0662 13.5706 13.5706 0 01-.1974-1.0379c-.1489-1.0006-.1454-1.8823.0088-2.5499.1426-.6161.405-1.0383.7793-1.2543.2022-.1166.4398-.1754.7106-.1754.2312 0 .4869.0426.765.1278.6555.1999 1.4205.6382 2.213 1.2672.2664.2116.5338.4418.8003.6901.262.2424.5231.502.7822.7763.4462.4717.887.988 1.3176 1.5424.287.3698.5696.7563.8454 1.1574a27.5594 27.5594 0 011.1534 1.8299 27.1883 27.1883 0 011.008 1.9146c.2096.4398.4031.8777.5794 1.3112.265.6494.4918 1.2891.6774 1.9106.1078.3625.2023.718.2817 1.0663.0808.3546.147.7014.1969 1.0379.149 1.0006.1455 1.8822-.0088 2.5498z"></path>
         <path d="M19.7192 6.842a15.0653 15.0653 0 00-1.1201-.3895 18.1344 18.1344 0 00-1.0654-.2884c-.963-.2302-2.0032-.4017-3.092-.5094a26.641 26.641 0 00-1.4528-.1044 28.5417 28.5417 0 00-2.6346 0c-.4922.022-.9776.0574-1.4532.1044-1.0888.1077-2.1286.2792-3.0916.5094a18.191 18.191 0 00-1.0653.2884c-.3909.119-.765.2494-1.1202.3894C1.3039 7.758.0255 9.0401.0255 10.4522c0 1.412 1.2784 2.6944 3.5985 3.6108.3552.14.7289.2698 1.1197.3894.3428.1043.6984.2008 1.0653.288.963.2306 2.0033.4016 3.0926.5098.4756.047.961.0818 1.4532.1044.434.02.8738.0298 1.317.0298.4433 0 .8827-.0098 1.3167-.0298a27.6819 27.6819 0 001.4532-.1044c1.0888-.1077 2.1296-.2792 3.0925-.5098a17.7945 17.7945 0 001.0654-.2885c.3904-.119.7646-.2488 1.1196-.389 2.3207-.9163 3.5986-2.1986 3.5986-3.6107 0-1.412-1.278-2.6944-3.5986-3.6103zm1.7985 4.912c-.5005.4678-1.2626.911-2.2036 1.2828-.3168.1249-.65.2415-.9977.3483a16.662 16.662 0 01-1.0638.289c-.6314.1503-1.299.2737-1.994.3693-.4634.0641-.939.1156-1.4243.1533a27.1442 27.1442 0 01-2.1625.0848 27.392 27.392 0 01-2.1624-.0843 24.2933 24.2933 0 01-1.4248-.1538c-.695-.0955-1.3626-.219-1.994-.3693a16.662 16.662 0 01-1.0638-.289 13.6634 13.6634 0 01-.9978-.3482c-.9408-.3718-1.703-.815-2.2035-1.2828-.4624-.4315-.697-.8694-.697-1.3019 0-.4324.2346-.8703.697-1.3018.5005-.4678 1.2626-.911 2.2035-1.2828.317-.1249.65-.2415.9978-.3482a16.6619 16.6619 0 011.0638-.289c.6314-.1504 1.299-.2738 1.994-.3694a24.2933 24.2933 0 011.4248-.1537 27.3921 27.3921 0 012.1624-.0843c.7352 0 1.4586.0284 2.1625.0848.4854.0377.961.0891 1.4243.1533.695.0955 1.3626.219 1.994.3693.3673.0872.7224.1837 1.0638.289.3478.1068.6808.2234.9977.3482.941.3718 1.703.815 2.2036 1.2828.4624.4316.697.8694.697 1.3019 0 .4324-.2346.8703-.697 1.3017z"></path>
         <path d="M17.4945.3663c-1.223-.7058-2.972-.24-4.9258 1.3112a14.7335 14.7335 0 00-.8968.7758c-.262.2445-.5236.5045-.7827.7783-.6813.719-1.3499 1.534-1.988 2.423a27.282 27.282 0 00-.8165 1.2064 27.897 27.897 0 00-.6843 1.125c-.2214.384-.4324.7695-.6323 1.1555a27.1707 27.1707 0 00-.6362 1.3106c-.4512.9973-.8229 1.9837-1.105 2.933-.1078.3619-.2023.718-.2832 1.0672-.092.3977-.167.7861-.2228 1.1637-.1665 1.1222-.1602 2.0954.0122 2.8898a11.9421 11.9421 0 004.1854 1.9872c.647-.2719 1.3376-.6956 2.0561-1.2662a14.765 14.765 0 00.8974-.7753c.262-.2445.523-.504.7822-.7778.6808-.719 1.3498-1.5346 1.9876-2.4236.2786-.3889.5515-.7915.817-1.2068a27.897 27.897 0 00.6842-1.125c.2218-.3836.4325-.769.6323-1.155.2268-.4374.4394-.8753.6368-1.3112.4506-.9968.8224-1.9837 1.1044-2.9329.1073-.3614.2018-.7175.2827-1.0668.0925-.3977.167-.7866.2233-1.1642.3662-2.468-.1049-4.2156-1.328-4.9219zm-.2419 6.864c-.1856.6216-.4124 1.2612-.6774 1.9107a24.5852 24.5852 0 01-.5794 1.3112 27.1883 27.1883 0 01-1.008 1.9146 27.5788 27.5788 0 01-1.1534 1.8299c-.2763.4016-.5589.788-.8459 1.1578-.43.554-.8708 1.0702-1.317 1.5419a16.673 16.673 0 01-.7822.7768c-.2665.2478-.534.478-.8004.6896-.7925.6294-1.5576 1.0673-2.2129 1.2676-.6048.1842-1.1015.1685-1.4757-.048-.3742-.216-.6368-.6382-.7793-1.2544-.1543-.6676-.1577-1.5492-.0088-2.5498.05-.3365.116-.6833.1969-1.0379.0793-.3482.1738-.7038.2816-1.0663.1856-.6215.4124-1.2617.6774-1.9111.1763-.4335.3698-.8714.5794-1.3107a27.1883 27.1883 0 011.008-1.9146 27.2535 27.2535 0 011.154-1.8304c.2758-.4012.5578-.7876.8449-1.1569.4305-.5544.8713-1.0706 1.317-1.5423.2596-.2748.5212-.5344.7827-.7769.267-.2478.5338-.478.8003-.6896.7925-.6289 1.5576-1.0672 2.2129-1.2671.2782-.0852.5339-.1278.765-.1278.2709 0 .509.0587.7107.1753.3747.216.6368.6382.7793 1.2544.1542.6676.1577 1.5492.0088 2.5499-.05.3364-.116.6832-.1974 1.0378a16.658 16.658 0 01-.281 1.0663z"></path>
         <circle cx="11.6719" cy="10.4522" r="2.1889"></circle>
      </g>
   </g>
</svg>
