<svg id="scss" xmlns="http://www.w3.org/2000/svg" viewBox="0 0 21 24">
   <path d="M19.9938 2.977C19.2782.1706 14.6245-.7521 10.2201.8126c-2.6212.9313-5.4588 2.3928-7.4991 4.3013C.295 7.3828-.0918 9.3578.0677 10.183.6302 13.0948 4.62 14.9982 6.26 16.4103v.0085c-.4836.2381-4.0233 2.0295-4.8518 3.8609-.874 1.932.1392 3.3185.81 3.505 2.0783.5784 4.211-.4618 5.3572-2.1713 1.106-1.6499 1.014-3.7804.5333-4.84.663-.175 1.4361-.2534 2.4185-.1387 2.772.3238 3.316 2.0547 3.212 2.779-.104.7245-.6854 1.1228-.8798 1.243-.1944.1202-.2538.1618-.2374.2512.0236.13.1136.1252.2793.0971.2282-.0385 1.4557-.5892 1.508-1.9264.067-1.6977-1.56-3.5968-4.4407-3.5471-1.1864.0205-1.9324.1333-2.4712.3338a5.5283 5.5283 0 00-.1223-.1352C5.5942 13.83 2.302 12.4859 2.4416 9.9316c.0508-.9286.3736-3.374 6.326-6.34 4.8762-2.4298 8.7798-1.7612 9.4544-.2794.9636 2.117-2.0862 6.0518-7.15 6.6194-1.9294.2162-2.9453-.5314-3.198-.81-.266-.293-.3057-.3063-.405-.2513-.1618.0896-.0592.3485 0 .5028.1512.3934.7716 1.0912 1.8294 1.4384.9305.3053 3.1957.473 5.9351-.5865 3.0682-1.187 5.464-4.4884 4.7603-7.248zM6.9408 17.28c.2298.8505.2047 1.6435-.0329 2.3618a3.889 3.889 0 01-.1893.4675c-.1831.38-.429.7357-.7298 1.064-.9183 1.0016-2.201 1.3804-2.7511 1.0613-.594-.3444-.2965-1.7566.768-2.882 1.1453-1.2105 2.793-1.989 2.793-1.989l-.0024-.005a24.012 24.012 0 00.1445-.0786z" fill="#C69" fill-rule="nonzero"></path>
</svg>
