<svg fill="white" xmlns="http://www.w3.org/2000/svg" xmlns:xlink="http://www.w3.org/1999/xlink" version="1.1" x="0px" y="0px" viewBox="0 0 100 125" enable-background="new 0 0 100 100" xml:space="preserve"><path d="M78.167,42.068c-2.565,0-4.997,0.575-7.173,1.602l-2.981-6.996l0.293-0.152l-3.353-6.483l-0.371,0.192l-0.547-1.217  l2.994,0.06l0.545-1.473l-3.823-3.145c-0.355-0.292-0.879-0.24-1.171,0.114c-0.291,0.354-0.24,0.878,0.114,1.17l1.975,1.624  l-1.914-0.039l-0.774,1.172l1.123,2.499l-0.365,0.189l0.052,0.1l0,0c0.316,0.922-5.917,3.226-7.908,4.204  c-4.821,2.369-10.64,6.22-13.064,6.054c-1.791-0.123-2.616-1.266-2.918-1.833c-0.194-0.568-0.388-1.143-0.579-1.729l-4.04-11.078  c0.803-0.234,1.81-0.447,3.048-0.447c0.928,0,1.191,0.236,2.826,0.236c0.915,0,1.191-0.236,1.191-0.485  c0-0.25-0.859-0.956-2.369-0.956s-4.073,0.152-5.223,0.152s-3.131-0.151-3.657-0.22c-0.811-0.107-1.289,0.04-1.51,0.387  c-0.222,0.346-0.291,0.748,0.083,0.97c0.374,0.222,0.858,0.526,1.33,0.526s1.413,0.443,2.189,0.443c0.142,0,0.311-0.035,0.51-0.092  l4.045,11.094c0.669,2.05,1.361,3.974,2.03,5.833c0.535,1.487,1.042,2.897,1.491,4.238l-3.825,1.948  c-2.904-5.056-8.358-8.461-14.606-8.461C12.537,42.068,5,49.604,5,58.901c0,9.296,7.537,16.833,16.833,16.833  c9.018,0,16.379-7.092,16.812-16.002c0,0,1.987,0,4.164,0s7.125-1.317,8.603-3.399c0.521-0.734,1.762-3.214,3.74-7.197  c1.927-3.877,5.149-10.364,5.904-11.126c1.155-1.041,2.95-1.754,4.079-2.191l0.956,1.849l0.293-0.151l2.995,7.027  c-4.825,2.959-8.045,8.282-8.045,14.358c0,9.296,7.537,16.833,16.833,16.833C87.464,75.734,95,68.197,95,58.901  C95,49.604,87.464,42.068,78.167,42.068z M49.493,40.351c0.291-0.152,0.499-0.235,0.79-0.152c0.061,0.018,0.152,0.084,0.26,0.178  l-4.382,3.205l0.294,0.403l-2.625,1.919l-0.942-2.044c0.055-0.04,0.105-0.077,0.149-0.114  C43.646,43.232,49.202,40.503,49.493,40.351z M41.511,47.087c-0.209-0.886-0.112-1.518,0.119-1.985l1.038,2.255l-0.908,0.462  C41.678,47.576,41.596,47.333,41.511,47.087z M40.781,50.184c0.904,2.936,1.441,5.532,1.246,7.886h-3.382  c-0.104-2.15-0.613-4.194-1.45-6.06L40.781,50.184z M35.314,58.069H25.296l8.933-4.549C34.85,54.948,35.219,56.482,35.314,58.069z   M31.384,68.452c-2.551,2.552-5.943,3.957-9.551,3.957c-3.608,0-7-1.405-9.552-3.957c-2.551-2.551-3.956-5.943-3.956-9.551  c0-3.608,1.405-7.001,3.956-9.552c2.551-2.551,5.943-3.957,9.552-3.957c3.608,0,7,1.405,9.551,3.957  c0.817,0.817,1.516,1.721,2.089,2.689L21.456,58.16c-0.342,0.175-0.521,0.562-0.431,0.935c0.09,0.374,0.424,0.638,0.809,0.638  h13.481C35.116,63.027,33.739,66.099,31.384,68.452z M53.067,48.1c-1.529,3.079-3.111,6.262-3.554,6.886  c-0.869,1.224-1.611,1.637-5.81,2.881c0.139-2.589-0.475-5.397-1.424-8.447l1.855-0.945c0.397-0.203,0.564-0.683,0.377-1.088  l-0.115-0.251l2.842-2.079l-0.779-1.066l1.074,1.468l3.397-2.484l0.159,0.277l-2.505,1.832l0.589,0.805l2.865-2.095l0.139-0.651  l-0.438-0.759l0.53-0.387l-0.513-0.701c0.649-0.754,1.761-2.795,2.1-2.996c0.374-0.222,3.602-1.482,3.989-1.69  c0.389-0.208,0.693-0.166,0.776,0s0.029,0.781-0.272,1.275C57.299,39.656,55.664,42.873,53.067,48.1z M87.719,68.452  c-2.552,2.552-5.943,3.957-9.552,3.957c-3.607,0-7-1.405-9.552-3.957c-2.551-2.551-3.956-5.943-3.956-9.551  c0-3.608,1.405-7.001,3.956-9.552c0.645-0.644,1.343-1.215,2.083-1.708l5.412,12.7l1.61-0.687l0.268,0.059  c0.061,0.014,0.12,0.02,0.18,0.02c0.382,0,0.726-0.265,0.812-0.652c0.099-0.449-0.186-0.893-0.634-0.991l-1.331-0.293l-4.717-11.067  c1.808-0.874,3.803-1.335,5.869-1.335c3.608,0,7,1.405,9.552,3.957c2.551,2.551,3.956,5.943,3.956,9.552  C91.675,62.509,90.27,65.901,87.719,68.452z"/></svg>
